<svg width="1067" height="290" viewBox="0 0 1067 290" fill="none" xmlns="http://www.w3.org/2000/svg">
<path d="M70.092 164.97C62.436 164.97 54.978 163.518 47.718 160.614C40.458 157.578 33.924 153.156 28.116 147.348C22.308 141.54 17.688 134.346 14.256 125.766C10.956 117.054 9.306 107.022 9.306 95.67C9.306 84.846 11.022 75.144 14.454 66.564C17.886 57.984 22.44 50.724 28.116 44.784C33.924 38.844 40.458 34.356 47.718 31.32C54.978 28.152 62.436 26.568 70.092 26.568C77.748 26.568 85.14 28.086 92.268 31.122C99.528 34.026 105.996 38.382 111.672 44.19C117.48 49.998 122.1 57.192 125.532 65.772C128.964 74.352 130.68 84.318 130.68 95.67C130.68 106.494 128.964 116.196 125.532 124.776C122.232 133.356 117.678 140.682 111.87 146.754C106.194 152.694 99.726 157.248 92.466 160.416C85.206 163.452 77.748 164.97 70.092 164.97ZM70.092 155.07C76.956 155.07 82.83 153.42 87.714 150.12C92.73 146.688 96.756 142.2 99.792 136.656C102.96 130.98 105.27 124.644 106.722 117.648C108.174 110.52 108.9 103.194 108.9 95.67C108.9 88.278 108.174 81.084 106.722 74.088C105.27 66.96 102.96 60.558 99.792 54.882C96.756 49.206 92.73 44.718 87.714 41.418C82.83 38.118 76.956 36.468 70.092 36.468C63.228 36.468 57.288 38.118 52.272 41.418C47.388 44.718 43.362 49.206 40.194 54.882C37.026 60.558 34.65 66.96 33.066 74.088C31.614 81.084 30.888 88.278 30.888 95.67C30.888 103.194 31.614 110.52 33.066 117.648C34.65 124.644 37.026 130.98 40.194 136.656C43.362 142.2 47.388 146.688 52.272 150.12C57.288 153.42 63.228 155.07 70.092 155.07Z" fill="black"/>
<path d="M191.312 109.77C183.445 109.77 176.523 108 170.544 104.46C164.565 100.841 159.885 95.9247 156.502 89.71C153.198 83.4953 151.546 76.4153 151.546 68.47C151.546 60.5247 153.237 53.484 156.62 47.348C160.003 41.1333 164.683 36.256 170.662 32.716C176.719 29.0973 183.76 27.288 191.784 27.288C196.661 27.288 200.988 27.76 204.764 28.704C208.619 29.5693 212.198 30.946 215.502 32.834L215.974 50.062H208.658L206.298 36.61C202.207 34.3287 197.723 33.188 192.846 33.188C187.418 33.188 182.541 34.5647 178.214 37.318C173.966 40.0713 170.583 44.0833 168.066 49.354C165.627 54.546 164.408 60.918 164.408 68.47C164.408 79.7193 167.004 88.412 172.196 94.548C177.388 100.684 184.507 103.752 193.554 103.752C198.038 103.752 202.247 102.965 206.18 101.392V97.616C206.18 94.076 206.141 90.536 206.062 86.996C206.062 83.3773 206.023 79.798 205.944 76.258L193.672 75.196V70.476H224.706V75.196L217.508 75.904C217.429 79.444 217.351 83.0233 217.272 86.642C217.272 90.2607 217.272 93.9187 217.272 97.616V102.808C213.181 104.932 209.051 106.623 204.882 107.882C200.713 109.141 196.189 109.77 191.312 109.77ZM269.358 109.77C264.795 109.77 260.351 108.905 256.024 107.174C251.697 105.365 247.803 102.729 244.342 99.268C240.881 95.8067 238.127 91.5193 236.082 86.406C234.115 81.214 233.132 75.2353 233.132 68.47C233.132 62.0193 234.155 56.2373 236.2 51.124C238.245 46.0107 240.959 41.684 244.342 38.144C247.803 34.604 251.697 31.9293 256.024 30.12C260.351 28.232 264.795 27.288 269.358 27.288C273.921 27.288 278.326 28.1927 282.574 30.002C286.901 31.7327 290.755 34.3287 294.138 37.79C297.599 41.2513 300.353 45.5387 302.398 50.652C304.443 55.7653 305.466 61.7047 305.466 68.47C305.466 74.9207 304.443 80.7027 302.398 85.816C300.431 90.9293 297.717 95.2953 294.256 98.914C290.873 102.454 287.019 105.168 282.692 107.056C278.365 108.865 273.921 109.77 269.358 109.77ZM269.358 103.87C273.449 103.87 276.949 102.887 279.86 100.92C282.849 98.8747 285.249 96.2 287.058 92.896C288.946 89.5133 290.323 85.7373 291.188 81.568C292.053 77.32 292.486 72.954 292.486 68.47C292.486 64.0647 292.053 59.7773 291.188 55.608C290.323 51.36 288.946 47.5447 287.058 44.162C285.249 40.7793 282.849 38.1047 279.86 36.138C276.949 34.1713 273.449 33.188 269.358 33.188C265.267 33.188 261.727 34.1713 258.738 36.138C255.827 38.1047 253.428 40.7793 251.54 44.162C249.652 47.5447 248.236 51.36 247.292 55.608C246.427 59.7773 245.994 64.0647 245.994 68.47C245.994 72.954 246.427 77.32 247.292 81.568C248.236 85.7373 249.652 89.5133 251.54 92.896C253.428 96.2 255.827 98.8747 258.738 100.92C261.727 102.887 265.267 103.87 269.358 103.87ZM308.061 33.896V29.058H340.275V34.368L328.947 35.43L348.771 91.952L367.887 35.548L357.503 34.368V29.058H384.761V33.896L374.495 35.312L349.597 108.826H344.405L316.911 34.958L308.061 33.896ZM390.995 33.896V29.058H449.759L450.585 49.944H443.859L441.263 34.958H413.533C413.454 39.9927 413.375 45.0273 413.297 50.062C413.297 55.0967 413.297 60.0527 413.297 64.93H430.643L432.295 53.72H437.723V81.568H432.295L430.761 70.476H413.297C413.297 76.376 413.297 81.922 413.297 87.114C413.375 92.2273 413.454 97.2227 413.533 102.1H443.623L446.219 86.996H452.945L452.119 108H390.995V103.162L401.851 101.864C402.008 96.908 402.087 91.8733 402.087 86.76C402.087 81.6467 402.087 76.5333 402.087 71.42V65.638C402.087 60.5247 402.087 55.4507 402.087 50.416C402.087 45.3027 402.008 40.2287 401.851 35.194L390.995 33.896ZM494.78 34.486H484.632C484.554 39.678 484.475 44.87 484.396 50.062C484.396 55.1753 484.396 60.5247 484.396 66.11H493.482C499.854 66.11 504.535 64.576 507.524 61.508C510.592 58.44 512.126 54.546 512.126 49.826C512.126 44.87 510.75 41.094 507.996 38.498C505.243 35.8233 500.838 34.486 494.78 34.486ZM462.094 33.896V29.058H495.134C504.181 29.058 511.222 30.8673 516.256 34.486C521.291 38.1047 523.808 43.1787 523.808 49.708C523.808 54.2707 522.156 58.44 518.852 62.216C515.548 65.992 510.592 68.47 503.984 69.65C507.446 70.358 510.278 71.892 512.48 74.252C514.762 76.5333 516.571 79.9947 517.908 84.636L522.982 102.1L532.068 103.162V108C530.888 108.315 529.551 108.59 528.056 108.826C526.64 109.062 525.028 109.18 523.218 109.18C519.521 109.18 516.728 108.629 514.84 107.528C513.031 106.427 511.772 104.46 511.064 101.628L506.344 82.748C505.636 79.5227 504.614 77.1233 503.276 75.55C501.939 73.898 500.208 72.7967 498.084 72.246C496.039 71.6953 493.404 71.42 490.178 71.42H484.396C484.396 77.084 484.396 82.394 484.396 87.35C484.475 92.306 484.554 97.144 484.632 101.864L495.488 103.162V108H462.094V103.162L472.95 101.864C473.108 96.908 473.186 91.8733 473.186 86.76C473.186 81.6467 473.186 76.5333 473.186 71.42V65.638C473.186 60.5247 473.186 55.4507 473.186 50.416C473.186 45.3027 473.108 40.2287 472.95 35.194L462.094 33.896ZM587.336 33.896V29.058H615.774V33.896L605.744 35.43V108.826H601.614L554.414 44.516V101.51L566.922 103.162V108H538.366V103.162L548.396 101.746V36.256L547.334 34.84L538.956 33.896V29.058H557.128L599.726 87.586V35.43L587.336 33.896ZM660.002 109.77C655.44 109.77 650.995 108.905 646.668 107.174C642.342 105.365 638.448 102.729 634.986 99.268C631.525 95.8067 628.772 91.5193 626.726 86.406C624.76 81.214 623.776 75.2353 623.776 68.47C623.776 62.0193 624.799 56.2373 626.844 51.124C628.89 46.0107 631.604 41.684 634.986 38.144C638.448 34.604 642.342 31.9293 646.668 30.12C650.995 28.232 655.44 27.288 660.002 27.288C664.565 27.288 668.97 28.1927 673.218 30.002C677.545 31.7327 681.4 34.3287 684.782 37.79C688.244 41.2513 690.997 45.5387 693.042 50.652C695.088 55.7653 696.11 61.7047 696.11 68.47C696.11 74.9207 695.088 80.7027 693.042 85.816C691.076 90.9293 688.362 95.2953 684.9 98.914C681.518 102.454 677.663 105.168 673.336 107.056C669.01 108.865 664.565 109.77 660.002 109.77ZM660.002 103.87C664.093 103.87 667.594 102.887 670.504 100.92C673.494 98.8747 675.893 96.2 677.702 92.896C679.59 89.5133 680.967 85.7373 681.832 81.568C682.698 77.32 683.13 72.954 683.13 68.47C683.13 64.0647 682.698 59.7773 681.832 55.608C680.967 51.36 679.59 47.5447 677.702 44.162C675.893 40.7793 673.494 38.1047 670.504 36.138C667.594 34.1713 664.093 33.188 660.002 33.188C655.912 33.188 652.372 34.1713 649.382 36.138C646.472 38.1047 644.072 40.7793 642.184 44.162C640.296 47.5447 638.88 51.36 637.936 55.608C637.071 59.7773 636.638 64.0647 636.638 68.47C636.638 72.954 637.071 77.32 637.936 81.568C638.88 85.7373 640.296 89.5133 642.184 92.896C644.072 96.2 646.472 98.8747 649.382 100.92C652.372 102.887 655.912 103.87 660.002 103.87Z" fill="black"/>
<path d="M192.34 267.85C179.547 267.85 168.273 265.063 158.52 259.49C148.893 253.79 141.357 245.937 135.91 235.93C130.59 225.923 127.93 214.397 127.93 201.35C127.93 191.723 129.513 182.92 132.68 174.94C135.973 166.833 140.47 159.803 146.17 153.85C151.997 147.897 158.773 143.273 166.5 139.98C174.353 136.687 182.903 135.04 192.15 135.04C197.343 135.04 203.17 135.673 209.63 136.94C216.09 138.08 222.487 140.487 228.82 144.16L229.58 171.71H217.8L214 149.67C210.58 147.77 207.223 146.44 203.93 145.68C200.763 144.92 197.66 144.54 194.62 144.54C186.133 144.54 178.407 146.693 171.44 151C164.473 155.307 158.9 161.703 154.72 170.19C150.667 178.55 148.64 188.937 148.64 201.35C148.64 213.763 150.54 224.213 154.34 232.7C158.14 241.187 163.397 247.583 170.11 251.89C176.95 256.197 184.677 258.35 193.29 258.35C196.963 258.35 200.7 257.97 204.5 257.21C208.427 256.323 212.227 254.993 215.9 253.22L219.7 231.18H231.48L230.72 258.73C224.893 261.897 218.687 264.177 212.1 265.57C205.64 267.09 199.053 267.85 192.34 267.85ZM323.078 145.68V137.89H368.678V145.68L352.148 147.77V212.94C352.148 226.24 350.184 236.943 346.258 245.05C342.331 253.03 336.948 258.857 330.108 262.53C323.268 266.077 315.478 267.85 306.738 267.85C297.618 267.85 289.574 266.077 282.608 262.53C275.641 258.983 270.194 253.473 266.268 246C262.468 238.527 260.568 228.9 260.568 217.12V196.6C260.568 188.367 260.568 180.197 260.568 172.09C260.568 163.857 260.441 155.687 260.188 147.58L244.418 145.68V137.89H298.188V145.68L278.808 147.96C278.681 155.94 278.554 163.983 278.428 172.09C278.428 180.197 278.428 188.367 278.428 196.6V211.61C278.428 222.377 279.694 230.927 282.228 237.26C284.888 243.467 288.561 247.9 293.248 250.56C297.934 253.093 303.508 254.36 309.968 254.36C320.734 254.36 328.841 250.94 334.288 244.1C339.734 237.133 342.458 225.227 342.458 208.38V148.15L323.078 145.68ZM380.609 265V257.21L397.709 254.74V147.77L380.609 145.68V137.89H415.759L458.319 242.39L498.599 137.89H536.029V145.68L518.549 147.77C518.423 155.75 518.296 163.857 518.169 172.09C518.169 180.323 518.169 188.557 518.169 196.79V206.1C518.169 214.207 518.169 222.377 518.169 230.61C518.296 238.717 518.423 246.887 518.549 255.12L536.029 257.21V265H484.349V257.21L500.309 255.12C500.563 247.14 500.689 239.033 500.689 230.8C500.689 222.567 500.689 214.397 500.689 206.29V158.98L459.459 265H449.959L406.449 158.98L407.589 194.89V254.74L423.169 257.21V265H380.609ZM600.695 146.63H589.295C589.168 154.737 589.041 163.033 588.915 171.52C588.915 179.88 588.915 188.303 588.915 196.79V205.91H601.455C612.981 205.91 621.215 203.123 626.155 197.55C631.095 191.85 633.565 184.567 633.565 175.7C633.565 166.453 630.905 159.297 625.585 154.23C620.391 149.163 612.095 146.63 600.695 146.63ZM553.005 145.68V137.89H604.115C620.201 137.89 632.235 141.437 640.215 148.53C648.321 155.497 652.375 164.553 652.375 175.7C652.375 182.793 650.601 189.317 647.055 195.27C643.508 201.223 637.808 205.973 629.955 209.52C622.228 213.067 611.841 214.84 598.795 214.84H588.915C588.915 221.68 588.915 228.393 588.915 234.98C589.041 241.567 589.168 248.28 589.295 255.12L606.965 257.21V265H553.005V257.21L570.485 255.12C570.738 247.14 570.865 239.033 570.865 230.8C570.865 222.567 570.865 214.333 570.865 206.1V196.79C570.865 188.557 570.865 180.387 570.865 172.28C570.865 164.047 570.738 155.877 570.485 147.77L553.005 145.68ZM715.664 146.63H699.324C699.197 154.99 699.07 163.35 698.944 171.71C698.944 179.943 698.944 188.557 698.944 197.55H713.574C723.834 197.55 731.371 195.08 736.184 190.14C741.124 185.2 743.594 178.93 743.594 171.33C743.594 163.35 741.377 157.27 736.944 153.09C732.511 148.783 725.417 146.63 715.664 146.63ZM663.034 145.68V137.89H716.234C730.8 137.89 742.137 140.803 750.244 146.63C758.351 152.457 762.404 160.627 762.404 171.14C762.404 178.487 759.744 185.2 754.424 191.28C749.104 197.36 741.124 201.35 730.484 203.25C736.057 204.39 740.617 206.86 744.164 210.66C747.837 214.333 750.75 219.907 752.904 227.38L761.074 255.5L775.704 257.21V265C773.804 265.507 771.651 265.95 769.244 266.33C766.964 266.71 764.367 266.9 761.454 266.9C755.501 266.9 751.004 266.013 747.964 264.24C745.05 262.467 743.024 259.3 741.884 254.74L734.284 224.34C733.144 219.147 731.497 215.283 729.344 212.75C727.19 210.09 724.404 208.317 720.984 207.43C717.69 206.543 713.447 206.1 708.254 206.1H698.944C698.944 215.22 698.944 223.77 698.944 231.75C699.07 239.73 699.197 247.52 699.324 255.12L716.804 257.21V265H663.034V257.21L680.514 255.12C680.767 247.14 680.894 239.033 680.894 230.8C680.894 222.567 680.894 214.333 680.894 206.1V196.79C680.894 188.557 680.894 180.387 680.894 172.28C680.894 164.047 680.767 155.877 680.514 147.77L663.034 145.68ZM786.794 145.68V137.89H840.564V145.68L823.084 147.77C822.957 155.75 822.83 163.857 822.704 172.09C822.704 180.323 822.704 188.557 822.704 196.79V206.1C822.704 214.207 822.704 222.377 822.704 230.61C822.83 238.717 822.957 246.887 823.084 255.12L840.564 257.21V265H786.794V257.21L804.274 255.12C804.527 247.14 804.654 239.033 804.654 230.8C804.654 222.567 804.654 214.333 804.654 206.1V196.79C804.654 188.557 804.654 180.387 804.654 172.28C804.654 164.047 804.527 155.877 804.274 147.77L786.794 145.68ZM935.011 145.68V137.89H980.611V145.68L964.081 147.77V212.94C964.081 226.24 962.118 236.943 958.191 245.05C954.265 253.03 948.881 258.857 942.041 262.53C935.201 266.077 927.411 267.85 918.671 267.85C909.551 267.85 901.508 266.077 894.541 262.53C887.575 258.983 882.128 253.473 878.201 246C874.401 238.527 872.501 228.9 872.501 217.12V196.6C872.501 188.367 872.501 180.197 872.501 172.09C872.501 163.857 872.375 155.687 872.121 147.58L856.351 145.68V137.89H910.121V145.68L890.741 147.96C890.615 155.94 890.488 163.983 890.361 172.09C890.361 180.197 890.361 188.367 890.361 196.6V211.61C890.361 222.377 891.628 230.927 894.161 237.26C896.821 243.467 900.495 247.9 905.181 250.56C909.868 253.093 915.441 254.36 921.901 254.36C932.668 254.36 940.775 250.94 946.221 244.1C951.668 237.133 954.391 225.227 954.391 208.38V148.15L935.011 145.68ZM1015.3 267.47C1011.88 267.47 1008.96 266.267 1006.56 263.86C1004.28 261.327 1003.14 258.413 1003.14 255.12C1003.14 251.827 1004.28 248.977 1006.56 246.57C1008.96 244.037 1011.88 242.77 1015.3 242.77C1018.72 242.77 1021.63 244.037 1024.04 246.57C1026.44 248.977 1027.65 251.827 1027.65 255.12C1027.65 258.413 1026.44 261.327 1024.04 263.86C1021.63 266.267 1018.72 267.47 1015.3 267.47ZM1053.49 177.41C1053.49 189.317 1047.15 197.297 1034.49 201.35L1028.03 203.63C1024.1 204.897 1021.63 206.163 1020.62 207.43C1019.6 208.697 1019.1 210.913 1019.1 214.08V224.53H1011.69L1009.41 216.55C1008.27 212.877 1007.44 210.027 1006.94 208C1006.56 205.973 1006.37 204.39 1006.37 203.25C1006.37 200.337 1007.51 197.93 1009.79 196.03C1012.07 194.13 1015.99 192.357 1021.57 190.71L1032.4 187.29C1039.49 184.883 1043.04 180.513 1043.04 174.18C1043.04 171.773 1042.59 169.43 1041.71 167.15C1040.82 164.743 1039.62 162.4 1038.1 160.12L1013.21 155.75C1007.63 154.737 1003.96 153.407 1002.19 151.76C1000.41 149.987 999.528 147.897 999.528 145.49C999.528 142.577 1000.41 140.36 1002.19 138.84C1003.96 137.193 1006.56 135.927 1009.98 135.04C1014.03 135.42 1018.53 136.687 1023.47 138.84C1028.41 140.993 1033.16 143.907 1037.72 147.58C1042.28 151.253 1046.01 155.623 1048.93 160.69C1051.97 165.757 1053.49 171.33 1053.49 177.41Z" fill="black"/>
<path d="M37.384 194.784V191.832H58.48V194.784L51.856 195.576C51.808 198.6 51.76 201.672 51.712 204.792C51.712 207.864 51.712 210.96 51.712 214.08V225.312C51.712 228.96 51.64 232.008 51.496 234.456C51.4 236.904 51.184 238.944 50.848 240.576C50.512 242.208 50.032 243.576 49.408 244.68C48.832 245.784 48.04 246.84 47.032 247.848C45.832 249.048 44.368 249.984 42.64 250.656C40.96 251.376 39.136 251.736 37.168 251.736C35.824 251.736 34.552 251.472 33.352 250.944C32.104 250.464 31.288 249.552 30.904 248.208C31.144 246.864 31.672 245.928 32.488 245.4C33.256 244.872 34.216 244.608 35.368 244.608C37 244.608 38.8 245.352 40.768 246.84L42.568 248.28C43.624 247.272 44.344 246.072 44.728 244.68C45.16 243.288 45.376 241.56 45.376 239.496C45.376 238.632 45.352 237.576 45.304 236.328C45.304 235.08 45.28 233.448 45.232 231.432C45.184 229.416 45.136 226.848 45.088 223.728C45.04 220.608 44.968 216.744 44.872 212.136C44.824 207.528 44.776 202.008 44.728 195.576L37.384 194.784ZM80.2246 199.536L72.9526 220.992H87.4246L80.2246 199.536ZM58.3366 240V237.048L64.3846 236.112L79.7206 191.472H84.2566L99.5926 236.4L104.993 237.048V240H85.4086V237.048L92.4646 236.184L88.5046 224.376H71.8006L67.7686 236.112L74.8246 237.048V240H58.3366ZM77.1286 186.36C79.3366 184.008 81.5926 181.752 83.8966 179.592C84.9046 178.584 85.7446 177.888 86.4166 177.504C87.0886 177.072 87.7366 176.856 88.3606 176.856C89.1286 176.856 89.7766 177.096 90.3046 177.576C90.8326 178.008 91.0966 178.584 91.0966 179.304C91.0966 179.928 90.8326 180.552 90.3046 181.176C89.8246 181.8 88.8886 182.496 87.4966 183.264C86.0086 184.08 84.4966 184.896 82.9606 185.712C81.4726 186.528 79.9606 187.344 78.4246 188.16L77.1286 186.36Z" fill="black"/>
</svg>
